<svg version="1.0" xmlns="http://www.w3.org/2000/svg"
 width="512.000000pt" height="512.000000pt" viewBox="0 0 512.000000 512.000000"
 preserveAspectRatio="xMidYMid meet">

    <g transform="translate(0.000000,512.000000) scale(0.100000,-0.100000)"
    fill="#000000" stroke="none">
    <path d="M2475 5113 c-176 -12 -462 -62 -612 -107 -328 -99 -597 -259 -821
    -489 -72 -74 -82 -89 -82 -120 0 -43 31 -77 71 -77 20 0 44 18 95 71 306 315
    659 480 1194 555 176 25 580 26 735 1 483 -77 852 -261 1170 -581 177 -178
    287 -344 374 -561 204 -509 147 -1123 -152 -1660 -70 -125 -135 -220 -243
    -358 -107 -135 -153 -212 -188 -317 -54 -163 -55 -309 -5 -620 46 -281 195
    -783 245 -827 41 -37 96 -25 115 24 8 21 -1 58 -50 202 -68 201 -131 447 -160
    618 -73 428 -45 568 162 829 235 297 396 611 477 932 50 204 64 317 64 532 -1
    330 -53 558 -195 845 -87 175 -172 296 -317 446 -325 338 -742 554 -1222 633
    -195 32 -448 43 -655 29z"/>
    <path d="M2591 4410 c-147 -114 -155 -116 -346 -89 -131 18 -149 18 -170 5
    -15 -10 -40 -60 -76 -148 -32 -80 -65 -146 -84 -166 -22 -24 -68 -48 -170 -90
    -111 -46 -142 -63 -152 -83 -11 -22 -9 -52 7 -169 16 -113 18 -152 9 -184 -7
    -25 -45 -86 -100 -158 -68 -89 -89 -124 -89 -148 0 -24 21 -59 89 -148 55 -72
    94 -133 100 -158 9 -32 7 -72 -9 -184 -16 -117 -18 -147 -7 -168 9 -20 42 -38
    152 -84 83 -34 151 -69 168 -86 17 -17 50 -83 85 -168 46 -110 63 -141 83
    -151 22 -11 52 -9 168 7 184 26 193 24 343 -91 89 -68 124 -89 148 -89 24 0
    59 21 148 89 66 50 135 94 157 101 33 9 67 7 184 -9 118 -17 148 -19 170 -8
    20 10 37 41 83 151 35 86 68 151 86 168 17 18 82 51 168 86 110 46 141 63 151
    83 11 22 9 52 -7 169 -16 112 -18 152 -9 184 6 25 45 86 100 158 68 89 89 124
    89 148 0 24 -21 59 -89 148 -55 72 -93 133 -100 158 -9 32 -7 71 9 184 16 117
    18 147 7 169 -10 20 -41 37 -152 83 -102 42 -148 66 -170 90 -19 20 -52 86
    -84 166 -36 88 -61 138 -76 148 -21 13 -39 13 -170 -5 -192 -27 -199 -25 -346
    90 -150 117 -147 117 -298 -1z m235 -141 c159 -123 201 -132 455 -93 l36 5 44
    -108 c38 -93 52 -116 104 -168 52 -52 75 -66 168 -104 59 -24 107 -45 107 -47
    0 -2 -7 -53 -15 -114 -24 -172 -9 -227 104 -375 34 -43 61 -82 61 -85 0 -3
    -27 -42 -61 -85 -113 -148 -128 -203 -104 -375 8 -61 15 -112 15 -114 0 -2
    -48 -23 -107 -47 -93 -38 -116 -52 -168 -104 -52 -52 -66 -75 -104 -168 l-44
    -109 -31 6 c-241 42 -301 30 -461 -93 -43 -34 -82 -61 -85 -61 -3 0 -42 27
    -85 61 -160 123 -220 135 -461 93 l-31 -6 -44 109 c-38 93 -52 116 -104 168
    -52 52 -75 66 -168 104 l-108 44 5 36 c39 254 30 295 -93 456 -34 43 -61 82
    -61 86 0 3 27 42 61 85 113 146 128 202 104 374 -8 61 -15 112 -15 114 0 2 48
    23 108 47 92 38 115 52 167 104 52 52 66 75 104 168 l44 108 36 -5 c254 -39
    295 -30 456 93 43 34 82 61 86 61 3 0 42 -27 85 -61z"/>
    <path d="M2659 3999 c-174 -14 -352 -96 -488 -224 -252 -236 -325 -629 -176
    -944 108 -228 304 -388 549 -451 108 -27 283 -28 392 0 102 26 242 95 322 160
    182 149 302 389 302 606 0 77 -2 84 -26 103 -34 27 -57 26 -89 -1 -23 -21 -27
    -34 -35 -120 -5 -53 -19 -125 -30 -160 -65 -194 -229 -358 -430 -430 -57 -20
    -83 -23 -210 -23 -132 0 -152 3 -218 27 -106 38 -177 83 -257 163 -80 80 -125
    151 -163 257 -24 66 -27 86 -27 213 0 117 4 152 22 210 63 198 238 375 433
    436 291 92 602 -17 770 -268 60 -89 64 -93 107 -93 34 0 73 37 73 69 0 36 -79
    150 -160 232 -179 180 -400 259 -661 238z"/>
    <path d="M2455 3545 c-23 -22 -25 -31 -25 -125 0 -94 2 -103 25 -125 13 -14
    36 -25 50 -25 14 0 37 11 50 25 23 22 25 31 25 125 0 94 -2 103 -25 125 -13
    14 -36 25 -50 25 -14 0 -37 -11 -50 -25z"/>
    <path d="M2925 3545 c-23 -22 -25 -31 -25 -125 0 -94 2 -103 25 -125 13 -14
    36 -25 50 -25 14 0 37 11 50 25 23 22 25 31 25 125 0 94 -2 103 -25 125 -13
    14 -36 25 -50 25 -14 0 -37 -11 -50 -25z"/>
    <path d="M2481 3099 c-38 -15 -50 -40 -51 -100 0 -127 63 -234 171 -288 54
    -27 73 -31 140 -31 68 0 85 4 140 33 108 55 169 161 169 286 -1 62 -13 85 -54
    101 -35 13 -482 12 -515 -1z m409 -155 c0 -9 -9 -31 -20 -49 -53 -86 -207 -86
    -260 0 -39 64 -37 65 130 65 132 0 150 -2 150 -16z"/>
    <path d="M782 4158 c-26 -28 -54 -94 -86 -201 -30 -98 -42 -166 -60 -347 -13
    -124 -18 -144 -63 -245 -46 -106 -48 -113 -48 -205 0 -88 3 -101 35 -170 42
    -90 43 -125 5 -235 -56 -160 -140 -312 -244 -440 -100 -122 -91 -262 24 -363
    49 -43 139 -77 238 -88 l57 -6 0 -35 c0 -25 -10 -47 -36 -78 -62 -76 -65 -145
    -11 -225 22 -32 23 -37 11 -67 -20 -47 -17 -92 8 -143 21 -41 50 -66 134 -116
    18 -11 17 -15 -19 -89 -48 -98 -60 -157 -46 -232 20 -105 71 -182 160 -242
    147 -98 341 -112 589 -41 112 32 140 52 140 99 0 34 -37 71 -71 71 -13 0 -62
    -12 -108 -25 -267 -78 -485 -33 -548 114 -26 60 -20 111 23 197 69 140 51 230
    -59 288 -71 39 -80 60 -39 95 57 49 51 87 -22 153 -36 32 -39 39 -29 55 64 94
    68 106 68 193 0 98 -15 144 -53 159 -15 5 -74 17 -131 26 -114 17 -149 31
    -180 71 -36 46 -28 83 39 164 142 171 282 485 283 630 0 55 -6 80 -38 150 -34
    75 -37 89 -32 144 4 41 19 91 46 152 46 102 54 138 75 339 17 160 42 264 86
    364 33 77 33 111 -3 136 -31 22 -70 18 -95 -7z"/>
    <path d="M1760 640 c-29 -29 -25 -66 14 -124 59 -91 106 -258 106 -381 0 -89
    27 -134 81 -135 14 0 35 9 47 20 19 18 22 32 22 93 0 194 -65 413 -151 512
    -37 42 -86 48 -119 15z"/>
    </g>
</svg>
