<svg version="1.0" xmlns="http://www.w3.org/2000/svg"
 width="512.000000pt" height="512.000000pt" viewBox="0 0 512.000000 512.000000"
 preserveAspectRatio="xMidYMid meet">

<g transform="translate(0.000000,512.000000) scale(0.100000,-0.100000)"
fill="#000000" stroke="none">
<path d="M1345 4874 c-356 -36 -647 -174 -901 -428 -506 -507 -581 -1220 -209
-1994 103 -213 228 -416 384 -622 254 -334 666 -747 1076 -1076 259 -208 669
-497 723 -509 51 -11 110 4 148 38 68 59 64 7 64 867 0 429 3 780 7 780 4 0
18 -11 32 -24 72 -68 213 -130 327 -142 55 -6 63 -4 89 18 32 28 39 79 13 105
-9 8 -53 21 -98 29 -201 32 -335 165 -360 356 -5 40 -10 364 -10 719 0 634 0
646 -20 664 -28 25 -76 23 -103 -4 l-22 -22 -5 -1616 c-4 -1199 -8 -1617 -16
-1620 -16 -5 -227 139 -459 313 -899 673 -1513 1402 -1743 2069 -157 458 -146
859 34 1218 188 375 549 646 954 718 107 19 355 17 462 -4 266 -53 514 -185
701 -375 l68 -69 2 -187 c2 -184 2 -188 26 -207 30 -25 76 -24 101 1 17 17 20
34 21 123 1 196 6 226 48 282 94 125 279 215 441 215 141 0 294 -65 402 -171
51 -50 79 -69 97 -69 59 0 94 56 67 108 -8 16 -43 55 -78 87 l-62 58 34 29
c76 64 232 118 340 118 25 0 77 -7 115 -15 305 -64 507 -369 440 -665 -29
-129 -29 -129 -4 -156 15 -16 33 -24 55 -24 53 0 86 56 101 173 3 26 9 47 12
47 16 0 123 -105 167 -163 100 -132 164 -321 164 -487 0 -175 -69 -369 -182
-509 l-51 -65 -16 25 c-47 72 -93 87 -136 44 -32 -31 -31 -53 1 -116 33 -66
64 -188 64 -254 0 -130 -58 -284 -145 -382 -39 -45 -155 -133 -174 -133 -4 0
-12 51 -18 114 -7 63 -18 124 -25 135 -18 30 -59 44 -91 32 -44 -17 -51 -43
-37 -144 68 -502 -349 -950 -851 -913 -77 6 -88 4 -112 -14 -35 -28 -37 -77
-4 -108 16 -16 41 -22 99 -28 l77 -7 -6 -61 c-8 -85 -46 -200 -90 -275 -76
-128 -227 -243 -376 -286 -86 -25 -113 -80 -62 -130 30 -31 51 -31 146 0 294
98 504 375 534 705 l6 65 77 18 c85 19 212 76 297 132 193 129 330 327 400
581 2 6 25 19 52 29 165 61 323 215 393 383 52 123 72 280 51 389 -8 41 -7 43
41 90 324 317 379 821 132 1206 -54 85 -209 239 -281 282 -49 28 -53 34 -67
92 -58 228 -234 422 -453 498 -243 85 -496 40 -699 -124 l-61 -49 -55 19
c-251 84 -518 25 -721 -160 l-57 -53 -94 90 c-260 248 -595 386 -961 397 -71
1 -148 1 -170 -1z"/>
<path d="M3335 3605 c-29 -28 -31 -59 -10 -159 18 -83 60 -175 107 -235 l35
-43 -28 -67 c-42 -99 -55 -193 -41 -294 10 -67 16 -86 37 -104 34 -30 70 -29
102 3 23 23 24 29 17 72 -19 100 -5 230 29 276 13 18 15 17 56 -4 48 -24 156
-50 212 -50 51 0 89 32 89 75 0 46 -33 70 -108 78 -96 10 -166 42 -236 107
-76 72 -115 146 -130 251 -7 49 -18 84 -30 98 -26 29 -71 27 -101 -4z"/>
</g>
</svg>
