<?xml version="1.0" standalone="no"?>
<!DOCTYPE svg PUBLIC "-//W3C//DTD SVG 20010904//EN"
 "http://www.w3.org/TR/2001/REC-SVG-20010904/DTD/svg10.dtd">
<svg version="1.0" xmlns="http://www.w3.org/2000/svg"
 width="512.000000pt" height="512.000000pt" viewBox="0 0 512.000000 512.000000"
 preserveAspectRatio="xMidYMid meet">

<g transform="translate(0.000000,512.000000) scale(0.100000,-0.100000)"
fill="#000000" stroke="none">
<path d="M1159 5111 c-88 -17 -474 -121 -505 -137 -32 -16 -54 -50 -54 -84 0
-21 111 -432 133 -496 82 -227 285 -434 518 -527 122 -49 192 -61 344 -60 129
0 151 3 275 37 74 20 174 46 221 58 l85 21 60 -40 c104 -71 199 -186 254 -306
63 -139 63 -140 67 -637 l4 -456 -63 -13 c-128 -26 -261 -90 -355 -172 -31
-27 -33 -27 -137 -22 -270 14 -507 -82 -692 -280 l-70 -74 -89 -13 c-50 -7
-142 -26 -205 -43 l-115 -31 -388 -6 -389 -5 -29 -33 -29 -32 0 -754 c0 -744
0 -754 20 -779 12 -15 38 -31 58 -37 22 -6 183 -10 402 -10 l365 0 550 -86
c704 -109 819 -115 1096 -54 135 30 219 62 779 294 583 242 587 244 577 320
-7 51 -44 86 -91 86 -19 0 -104 -29 -190 -65 -86 -36 -159 -65 -163 -65 -3 0
3 10 15 23 70 74 100 235 64 342 -12 33 -18 63 -14 66 4 4 278 120 609 258
659 274 658 274 743 231 76 -39 117 -142 90 -224 -22 -67 -64 -98 -225 -165
-82 -35 -160 -72 -172 -83 -62 -57 -17 -168 68 -168 24 0 274 100 342 138 58
31 127 105 157 167 92 189 11 424 -177 517 -57 28 -79 33 -159 36 l-92 4 -154
-62 c-84 -34 -158 -64 -164 -67 -7 -2 -17 12 -24 34 -63 192 -219 372 -405
466 -161 81 -409 105 -563 56 -32 -11 -34 -10 -120 73 -124 119 -251 189 -400
219 l-63 13 3 461 c4 449 4 462 27 530 45 136 98 223 196 320 49 50 107 99
127 110 l37 19 88 -23 c48 -13 147 -39 218 -59 120 -32 141 -35 275 -35 169 0
251 17 389 83 207 99 372 272 455 476 27 67 146 501 146 533 0 11 -12 34 -27
51 -25 27 -52 37 -253 90 -277 74 -338 84 -465 77 -342 -20 -638 -222 -781
-533 -19 -40 -57 -157 -84 -261 -28 -103 -53 -196 -56 -206 -3 -10 -24 -29
-47 -44 -121 -75 -253 -211 -316 -325 -14 -26 -28 -48 -31 -48 -3 0 -23 30
-45 67 -52 87 -189 231 -276 289 -77 51 -63 21 -138 295 -22 81 -51 175 -65
209 -104 255 -340 460 -614 531 -86 23 -287 33 -363 20z m336 -221 c189 -59
342 -184 429 -349 34 -66 102 -278 92 -288 -3 -3 -57 24 -120 61 -132 75 -160
80 -208 37 -27 -24 -33 -36 -33 -69 0 -54 16 -70 154 -149 l114 -67 -84 -23
c-46 -13 -123 -29 -171 -35 -281 -37 -575 117 -707 371 -40 78 -58 132 -110
327 l-29 112 172 45 c220 59 204 56 326 52 72 -2 127 -10 175 -25z m2827 -25
l176 -47 -13 -47 c-7 -25 -28 -100 -45 -166 -54 -206 -135 -343 -264 -447
-182 -146 -410 -189 -665 -124 -131 33 -133 24 21 112 54 30 106 67 115 81 27
41 20 93 -16 125 -48 43 -78 37 -208 -38 -63 -37 -116 -64 -119 -61 -11 11 40
176 81 262 70 144 170 249 305 319 197 102 343 109 632 31z m-1538 -2590 c143
-30 300 -137 376 -255 52 -80 81 -87 207 -44 191 65 423 16 580 -121 92 -81
207 -285 177 -315 -11 -11 -803 -340 -819 -340 -6 0 -227 113 -490 251 -264
139 -523 272 -575 297 -184 87 -431 154 -617 169 -54 4 -82 10 -80 17 6 20
126 86 204 112 95 32 232 42 327 24 36 -7 77 -9 91 -6 14 4 55 33 91 66 146
132 338 185 528 145z m-1066 -576 c136 -22 241 -51 365 -101 113 -46 1125
-575 1161 -607 105 -95 50 -272 -92 -296 -32 -5 -123 21 -566 164 l-528 171
-148 0 c-144 0 -148 0 -173 -25 -34 -34 -40 -67 -23 -110 22 -52 62 -65 198
-65 l113 0 511 -165 c281 -91 520 -165 530 -165 63 -1 25 -23 -180 -108 -399
-165 -482 -186 -746 -186 -171 0 -188 2 -730 87 l-555 87 -327 0 -328 0 0 625
0 625 325 0 c316 0 327 1 410 25 130 37 247 57 385 64 166 8 251 4 398 -20z"/>
<path d="M4126 905 c-41 -22 -55 -44 -56 -88 0 -84 104 -130 163 -72 51 51 37
134 -27 160 -43 18 -44 18 -80 0z"/>
</g>
</svg>
