<svg version="1.0" xmlns="http://www.w3.org/2000/svg"
 width="512.000000pt" height="512.000000pt" viewBox="0 0 512.000000 512.000000"
 preserveAspectRatio="xMidYMid meet">

<g transform="translate(0.000000,512.000000) scale(0.100000,-0.100000)"
fill="#000000" stroke="none">
<path d="M2430 5109 c-336 -29 -639 -108 -885 -229 -206 -102 -247 -137 -226
-193 24 -63 71 -65 171 -5 229 136 508 223 870 269 156 21 555 18 695 -4 376
-59 667 -178 955 -390 122 -90 317 -287 399 -402 76 -109 179 -316 221 -443
189 -585 58 -1269 -349 -1827 -56 -76 -64 -112 -31 -145 31 -31 72 -30 109 3
38 36 185 263 249 387 352 677 344 1440 -21 2025 -148 237 -392 475 -657 638
-406 250 -949 364 -1500 316z"/>
<path d="M1019 4492 c-131 -138 -241 -307 -296 -453 -43 -114 -67 -234 -87
-419 -13 -136 -17 -152 -63 -255 -46 -106 -48 -113 -48 -205 0 -88 3 -101 35
-170 42 -90 43 -125 5 -235 -56 -160 -140 -312 -244 -440 -100 -122 -91 -262
24 -363 49 -43 139 -77 238 -88 l57 -6 0 -35 c0 -25 -10 -47 -36 -78 -62 -76
-66 -148 -10 -224 23 -30 23 -35 10 -66 -20 -49 -17 -94 9 -145 20 -41 49 -66
133 -116 18 -11 17 -15 -19 -89 -48 -98 -60 -157 -46 -232 38 -207 216 -328
479 -325 107 1 144 7 330 57 132 36 163 31 231 -32 27 -25 59 -64 72 -87 48
-83 87 -240 87 -353 0 -87 27 -132 81 -133 14 0 36 10 49 22 22 21 23 25 17
137 -11 221 -77 399 -189 511 -116 116 -215 133 -423 72 -248 -72 -427 -58
-526 42 -73 73 -80 148 -23 262 69 140 51 230 -59 288 -71 39 -80 60 -39 95
57 49 51 87 -22 153 -36 32 -39 39 -29 55 64 94 68 106 68 193 0 98 -15 144
-53 159 -15 5 -74 17 -131 26 -114 17 -149 31 -180 71 -36 46 -28 83 39 164
142 171 284 487 283 631 0 54 -7 80 -38 149 -34 75 -37 89 -32 144 4 41 19 91
46 152 46 102 54 138 75 339 19 172 44 275 95 382 59 123 135 231 258 365 48
53 54 82 22 122 -15 19 -30 26 -54 26 -27 0 -43 -11 -96 -68z"/>
<path d="M2018 4380 c-210 -33 -409 -150 -535 -315 -319 -415 -180 -1005 294
-1243 64 -33 191 -72 230 -72 13 0 23 -4 23 -9 0 -4 -15 -41 -34 -82 -85 -186
-97 -393 -36 -592 11 -36 27 -73 36 -82 27 -26 63 -30 92 -8 23 17 27 28 26
64 -1 24 -9 71 -20 104 -14 45 -18 91 -18 180 0 108 3 128 31 207 17 48 48
115 69 148 33 50 45 61 74 66 131 22 257 72 353 140 l48 34 19 -45 c34 -80
110 -188 181 -257 l69 -66 0 -90 c0 -107 18 -142 75 -142 46 0 75 37 75 97 0
39 2 44 18 38 85 -36 243 -73 320 -75 17 0 16 -103 -4 -198 -73 -354 -420
-592 -769 -529 -104 19 -215 65 -290 122 -75 57 -99 64 -133 38 -28 -21 -37
-50 -28 -87 13 -52 229 -175 371 -212 94 -24 284 -24 380 0 104 26 259 105
339 173 179 150 280 357 293 599 l6 110 70 18 c273 71 498 297 579 581 29 104
32 305 5 404 -45 168 -102 266 -227 392 -84 85 -107 102 -203 149 l-107 54
-35 -17 c-41 -20 -55 -58 -34 -96 9 -15 49 -43 103 -70 329 -170 465 -556 312
-886 -85 -183 -252 -321 -446 -372 -86 -22 -244 -22 -329 0 -137 37 -264 117
-354 225 -51 60 -126 201 -129 243 -1 14 13 45 35 75 95 132 141 282 143 469
l1 129 44 38 c65 56 191 115 294 137 103 22 131 44 121 95 -10 47 -30 61 -85
60 -100 -3 -260 -62 -368 -134 -24 -17 -47 -30 -51 -30 -4 0 -22 31 -39 68
-45 92 -126 196 -209 265 -80 68 -236 147 -335 171 -83 20 -235 28 -311 16z
m320 -175 c132 -42 248 -123 329 -229 282 -372 124 -896 -319 -1054 -66 -23
-87 -26 -213 -26 -126 0 -147 3 -213 26 -443 158 -601 682 -319 1054 101 132
262 228 431 255 81 13 219 1 304 -26z"/>
<path d="M1803 3890 c-25 -10 -43 -39 -43 -70 0 -11 20 -42 44 -68 l44 -47
-44 -47 c-49 -53 -55 -81 -23 -122 15 -18 30 -26 53 -26 28 0 45 13 114 84
107 109 107 114 5 217 -79 79 -110 96 -150 79z"/>
<path d="M2405 3891 c-11 -5 -53 -43 -92 -84 -97 -99 -97 -105 9 -213 69 -71
86 -84 114 -84 23 0 38 8 53 26 32 41 26 69 -23 122 l-44 47 44 47 c27 29 44
57 44 71 0 50 -59 87 -105 68z"/>
<path d="M2023 3366 c-87 -28 -163 -95 -163 -142 0 -32 42 -74 74 -74 13 0 37
11 53 24 49 40 90 56 148 56 58 0 99 -16 148 -56 37 -31 72 -30 102 1 33 32
31 67 -6 109 -51 58 -128 90 -228 93 -53 2 -102 -2 -128 -11z"/>
<path d="M3143 3550 c-36 -15 -43 -43 -43 -168 0 -106 2 -122 21 -146 15 -19
30 -26 54 -26 24 0 39 7 54 26 19 24 21 40 21 149 0 102 -3 126 -17 143 -21
25 -60 35 -90 22z"/>
<path d="M3643 3550 c-36 -15 -43 -43 -43 -168 0 -106 2 -122 21 -146 15 -19
30 -26 54 -26 24 0 39 7 54 26 19 24 21 40 21 149 0 102 -3 126 -17 143 -21
25 -60 35 -90 22z"/>
<path d="M3175 3005 c-14 -13 -25 -35 -25 -49 0 -36 49 -87 117 -122 53 -26
67 -29 158 -29 89 0 106 3 157 28 66 32 118 87 118 123 0 32 -42 74 -74 74
-13 0 -38 -11 -54 -25 -43 -36 -94 -55 -147 -55 -53 0 -104 19 -147 55 -37 32
-72 32 -103 0z"/>
<path d="M2463 2660 c-36 -15 -43 -43 -43 -168 0 -106 2 -122 21 -146 15 -19
30 -26 54 -26 24 0 39 7 54 26 19 24 21 40 21 149 0 102 -3 126 -17 143 -21
25 -60 35 -90 22z"/>
<path d="M2639 2141 c-62 -20 -143 -71 -159 -101 -15 -29 -12 -55 11 -84 28
-36 72 -34 123 4 81 61 170 63 255 4 62 -42 101 -44 130 -8 38 48 28 80 -41
130 -94 69 -211 90 -319 55z"/>
<path d="M4073 1568 c-39 -19 -85 -161 -98 -303 -7 -78 6 -225 37 -415 45
-279 194 -783 244 -828 41 -36 96 -24 115 25 8 21 -1 58 -50 202 -100 298
-166 589 -192 850 -12 128 -3 229 32 328 26 77 25 107 -7 132 -29 23 -48 25
-81 9z"/>
</g>
</svg>
